Coordinates
version=1
nRows=11
nColumns=40
inDegrees=yes

Units are S.I. units (second, meters, Newtons, ...)
Angles are in degrees.

endheader
time	pelvis_tilt	pelvis_list	pelvis_rotation	pelvis_tx	pelvis_ty	pelvis_tz	hip_flexion_r	hip_adduction_r	hip_rotation_r	knee_angle_r	knee_angle_r_beta	ankle_angle_r	subtalar_angle_r	mtp_angle_r	hip_flexion_l	hip_adduction_l	hip_rotation_l	knee_angle_l	knee_angle_l_beta	ankle_angle_l	subtalar_angle_l	mtp_angle_l	lumbar_extension	lumbar_bending	lumbar_rotation	arm_flex_r	arm_add_r	arm_rot_r	elbow_flex_r	pro_sup_r	wrist_flex_r	wrist_dev_r	arm_flex_l	arm_add_l	arm_rot_l	elbow_flex_l	pro_sup_l	wrist_flex_l	wrist_dev_l
     16.30142857	     -7.46549190	     -8.98977699	      0.13608925	      1.02623815	      0.91559128	      0.50180592	      0.36842466	      9.03371553	    -19.01022422	      3.59183475	      3.59183475	     12.59292224	     10.64250891	     -5.65273361	     38.10970833	    -14.21679355	      0.27419379	     23.73998564	     23.73998564	      7.19377567	     -9.12542799	     15.63083268	    -10.27196149	      7.96852119	      4.26569579	     55.93619301	    -14.03686622	     -0.68696179	    101.12811801	     44.04419022	      0.00000000	      0.00000000	    -20.04456569	     -6.27221190	      9.93030745	     28.36178368	     44.96842566	      0.00000000	      0.00000000
     16.31285714	     -7.48078519	     -8.98076900	      0.08107889	      1.02777890	      0.91424178	      0.49982609	     -0.07759700	      8.83925971	    -18.40955196	      4.06820948	      4.06820948	     13.65873656	      9.90395021	     -4.51027933	     37.39065438	    -14.04885916	     -0.56659584	     23.17478712	     23.17478712	      6.12354657	     -9.49491219	     13.92365917	    -10.03292714	      7.92149912	      4.51641727	     55.50084488	    -14.66092081	     -0.58964027	    103.87253236	     44.01836830	      0.00000000	      0.00000000	    -20.71732635	     -6.51354867	     10.88816987	     29.06981365	     44.82621348	      0.00000000	      0.00000000
     16.32428571	     -7.45138266	     -8.80625017	      0.07121643	      1.02935268	      0.91310473	      0.49752331	     -0.54327777	      8.41530018	    -18.17610172	      4.56206791	      4.56206791	     14.34565596	      9.58954114	     -4.51769174	     36.77916720	    -13.73838273	     -1.42910665	     23.20020929	     23.20020929	      5.67279776	     -9.74219958	     13.66575554	     -9.76854131	      7.71074527	      4.06345455	     55.37690010	    -14.41675778	     -0.46000667	    104.74094556	     43.99664160	      0.00000000	      0.00000000	    -21.21338461	     -6.38079014	     11.09607424	     28.89716076	     44.79180172	      0.00000000	      0.00000000
     16.33571429	     -7.47238925	     -8.64532725	      0.08537386	      1.03081714	      0.91204142	      0.49508595	     -0.74276154	      7.94701768	    -17.85529303	      5.44740637	      5.44740637	     15.18744395	      8.90054354	     -4.20725623	     36.28276649	    -13.43364513	     -2.09652397	     23.44197960	     23.44197960	      4.97615397	    -10.16087690	     12.66256083	     -9.50374935	      7.54429058	      3.67041935	     54.89107950	    -14.27439454	     -0.25948181	    106.38343741	     43.95435208	      0.00000000	      0.00000000	    -21.50036223	     -6.34087391	     11.33277487	     28.86547901	     44.75928356	      0.00000000	      0.00000000
     16.34714286	     -7.42187801	     -8.48115622	      0.09805499	      1.03246975	      0.91131551	      0.49245024	     -1.08385195	      7.46979318	    -17.54048122	      6.28147588	      6.28147588	     16.52406325	      8.51522797	     -1.95818217	     35.57314346	    -13.09684435	     -2.53133997	     23.48646763	     23.48646763	      2.78823197	    -11.28935500	      7.88966542	     -9.30916241	      7.37457427	      4.07916480	     53.84593796	    -15.17017970	     -0.72992921	    108.59000841	     44.02063844	      0.00000000	      0.00000000	    -21.23143655	     -6.62870964	     12.79197371	     28.75320515	     44.61179628	      0.00000000	      0.00000000
     16.35857143	     -7.26922401	     -8.19327201	      0.19425287	      1.03400949	      0.91099259	      0.48955071	     -1.60397130	      6.87357715	    -17.38563240	      6.86153548	      6.86153548	     16.92055232	      8.15305899	     -2.02601945	     35.09083915	    -12.66721702	     -2.85963559	     24.30152995	     24.30152995	      2.79273368	    -11.67194352	      7.64765912	     -9.20305648	      7.07745680	      3.61023919	     53.07857794	    -15.12860927	     -0.60424284	    108.96992531	     44.00657990	      0.00000000	      0.00000000	    -21.14262385	     -6.61035506	     12.84018186	     28.76384675	     44.60927606	      0.00000000	      0.00000000
     16.37000000	     -7.30064495	     -7.87056664	      0.24024558	      1.03523969	      0.91074270	      0.48654312	     -1.41448288	      6.09833051	    -16.96963135	      8.42952607	      8.42952607	     17.79590448	      7.03566927	     -1.29265420	     34.69181579	    -12.18245549	     -3.04161160	     24.86936803	     24.86936803	      2.40951400	    -12.29059637	      6.37023695	     -9.03395109	      6.77371844	      3.88355080	     51.46630701	    -15.94234704	     -0.91393595	    111.64120658	     43.97882057	      0.00000000	      0.00000000	    -20.46072484	     -6.78791615	     13.15392939	     28.68542719	     44.60826589	      0.00000000	      0.00000000
     16.38142857	     -7.09688799	     -7.56334334	      0.35280244	      1.03661423	      0.91115553	      0.48336843	     -1.75354282	      5.39234432	    -16.89049958	      9.42390825	      9.42390825	     18.04882389	      6.57831067	     -1.36126749	     34.13247200	    -11.73166544	     -3.16310443	     25.63981048	     25.63981048	      2.76074781	    -12.54910918	      5.97886283	     -9.04357888	      6.49220114	      3.34374465	     50.22047779	    -15.79697334	     -0.77380741	    111.98529672	     43.96507668	      0.00000000	      0.00000000	    -20.03346978	     -6.82698098	     13.21873921	     28.68285091	     44.61010299	      0.00000000	      0.00000000
     16.39285714	     -6.94555812	     -7.23325448	      0.49641898	      1.03777190	      0.91187905	      0.47995694	     -1.79892165	      4.57772441	    -16.81129702	     10.84996766	     10.84996766	     18.23699573	      5.92689373	     -1.49910109	     33.56272999	    -11.21791273	     -3.22511049	     26.24233151	     26.24233151	      3.24184213	    -12.71299284	      5.57596210	     -9.04345312	      6.24554467	      2.87087006	     48.68057733	    -15.73534032	     -0.64414487	    112.49049863	     43.94548568	      0.00000000	      0.00000000	    -19.31508530	     -6.86451421	     13.26302758	     28.73477615	     44.61978188	      0.00000000	      0.00000000
     16.40428571	     -7.12849449	     -6.78248456	      0.53402337	      1.03841042	      0.91249831	      0.47645696	     -0.93900312	      3.46494251	    -16.63239762	     13.27042191	     13.27042191	     18.49100360	      4.82400826	     -1.82812360	     33.17919223	    -10.57612235	     -3.38540382	     26.49505236	     26.49505236	      3.70778101	    -12.76584282	      5.19972620	     -8.78299256	      5.90815345	      2.88694942	     46.78039260	    -16.19439728	     -0.88345167	    113.87629214	     43.91996185	      0.00000000	      0.00000000	    -18.11721861	     -6.91850575	     13.36305357	     28.59501055	     44.63661257	      0.00000000	      0.00000000
     16.41571429	     -7.02327041	     -6.45210459	      0.62857643	      1.03932602	      0.91386706	      0.47296039	     -0.56654740	      2.53646959	    -16.50336416	     15.33975349	     15.33975349	     18.33499733	      3.90607131	     -2.23280586	     32.43838524	    -10.04975464	     -3.48217823	     26.64828313	     26.64828313	      4.34028235	    -12.76653280	      4.90157961	     -8.77745921	      5.66488262	      2.85672789	     44.51177820	    -16.52107796	     -1.05173479	    114.55250131	     43.90941331	      0.00000000	      0.00000000	    -16.89190210	     -7.01761958	     13.44744498	     28.46987970	     44.65360009	      0.00000000	      0.00000000
